{"title":"Sultan (2016) Tiny 720p DvDRip x264 AAC 5.1 Msubs -DDR","uid":15648362,"size":1636906444,"categoryP":"video","categoryS":"hd___movies","magnet":"?xt=urn:btih:3fcce1cdf4fdd2fb67445903d3626bbd77e6e607&amp;dn=Sultan+%282016%29+Tiny+720p+DvDRip+x264+AAC+5.1+Msubs+-DDR&amp;tr=udp%3A%2F%2Ftracker.leechers-paradise.org%3A6969&amp;tr=udp%3A%2F%2Fzer0day.ch%3A1337&amp;tr=udp%3A%2F%2Fopen.demonii.com%3A1337&amp;tr=udp%3A%2F%2Ftracker.coppersurfer.tk%3A6969&amp;tr=udp%3A%2F%2Fexodus.desync.com%3A6969","seeders":45,"leechers":165,"uploader":"SaM","files":3,"time":1472070606,"description":"** SULTAN **\r\n\r\n** 2016**\r\n\r\n** Tiny 720p / DvDRip / x264 / AAC 5.1 **\r\n\r\n** Arabic - English - French - Dutch - Turkish - Malay - Thai Subtitle(s) **\r\n\r\n\r\n\r\n[ SCREENS ]\r\n \nhttp://extraimago.com/image/wEPE \nhttp://extraimago.com/image/wErf \nhttp://extraimago.com/image/wErW \nhttp://extraimago.com/image/wErA \nhttp://extraimago.com/image/wErv \nhttp://extraimago.com/image/wEru \nhttp://extraimago.com/image/wErV \nhttp://extraimago.com/image/wEr6 \nhttp://extraimago.com/image/wErx \nhttp://extraimago.com/image/wErt \nhttp://extraimago.com/image/wEro \nhttp://extraimago.com/image/wErk\r\n\r\n[ Info ]\r\nSource : DVD9 @ DDR\r\nFormat : Matroska\r\nFile size : 1.52 GiB\r\nDuration : 2 h 49 min\r\nOverall bit rate : 1 279 kb/s\r\n\r\nVideo\r\nFormat : AVC\r\nFormat/Info : Advanced Video Codec\r\nFormat profile :   \r\nFormat settings, CABAC : Yes\r\nFormat settings, ReFrames : 12 frames\r\nCodec ID : V_MPEG4/ISO/AVC\r\nDuration : 2 h 49 min\r\nBit rate : 1 075 kb/s\r\nWidth : 1 280 pixels\r\nHeight : 544 pixels\r\nDisplay aspect ratio : 2.35:1\r\nFrame rate mode : Constant\r\nFrame rate : 23.976 (24000/1001) FPS\r\ncolor space : YUV\r\nChroma subsampling : 4:2:0\r\nBit depth : 8 bits\r\nScan type : Progressive\r\nBits/(Pixel*Frame) : 0.064\r\nStream size : 1.27 GiB (84%)\r\nDefault : Yes\r\nForced : No\r\ncolor range : Limited\r\ncolor primaries : BT.709\r\nTransfer characteristics : BT.709\r\nMatrix coefficients : BT.709\r\n\r\nAudio\r\nFormat : AAC\r\nFormat/Info : Advanced Audio Codec\r\nFormat profile : LC\r\nCodec ID : A_AAC\r\nDuration : 2 h 49 min\r\nBit rate : 192 kb/s\r\nChannel(s) : 6 channels\r\nChannel positions : Front: L C R, Side: L R, LFE\r\nSampling rate : 48.0 kHz\r\nFrame rate : 46.875 FPS (1024 spf)\r\nCompression mode : Lossy\r\nDelay relative to video : 9 ms\r\nStream size : 232 MiB (15%)\r\nLanguage : Hindi\r\nDefault : Yes\r\nForced : No\r\n\r\nChapters = YES\r\next #1\r\nID : 3\r\nFormat : VobSub\r\nMuxing mode : zlib\r\nCodec ID : S_VOBSUB\r\nCodec ID/Info : Picture based subtitle format used on DVDs\r\nDuration : 2 h 47 min\r\nBit rate : 1 217 b/s\r\nCount of elements : 2036\r\nStream size : 1.46 MiB (0%)\r\nLanguage : Arabic\r\nDefault : Yes\r\nForced : No\r\n\r\nText #2\r\nID : 4\r\nFormat : VobSub\r\nMuxing mode : zlib\r\nCodec ID : S_VOBSUB\r\nCodec ID/Info : Picture based subtitle format used on DVDs\r\nDuration : 2 h 47 min\r\nBit rate : 1 403 b/s\r\nCount of elements : 2036\r\nStream size : 1.68 MiB (0%)\r\nLanguage : Dutch\r\nDefault : No\r\nForced : No\r\n\r\nText #3\r\nID : 5\r\nFormat : VobSub\r\nMuxing mode : zlib\r\nCodec ID : S_VOBSUB\r\nCodec ID/Info : Picture based subtitle format used on DVDs\r\nDuration : 2 h 47 min\r\nBit rate : 1 398 b/s\r\nCount of elements : 2042\r\nStream size : 1.67 MiB (0%)\r\nLanguage : English\r\nDefault : No\r\nForced : No\r\n\r\nText #4\r\nID : 6\r\nFormat : VobSub\r\nMuxing mode : zlib\r\nCodec ID : S_VOBSUB\r\nCodec ID/Info : Picture based subtitle format used on DVDs\r\nDuration : 2 h 47 min\r\nBit rate : 1 425 b/s\r\nCount of elements : 1972\r\nStream size : 1.71 MiB (0%)\r\nLanguage : French\r\nDefault : No\r\nForced : No\r\n\r\nText #5\r\nID : 7\r\nFormat : VobSub\r\nMuxing mode : zlib\r\nCodec ID : S_VOBSUB\r\nCodec ID/Info : Picture based subtitle format used on DVDs\r\nDuration : 2 h 47 min\r\nBit rate : 1 373 b/s\r\nCount of elements : 2036\r\nStream size : 1.65 MiB (0%)\r\nLanguage : Thai\r\nDefault : No\r\nForced : No\r\n\r\nText #6\r\nID : 8\r\nFormat : VobSub\r\nMuxing mode : zlib\r\nCodec ID : S_VOBSUB\r\nCodec ID/Info : Picture based subtitle format used on DVDs\r\nDuration : 2 h 47 min\r\nBit rate : 1 507 b/s\r\nCount of elements : 2041\r\nStream size : 1.81 MiB (0%)\r\nLanguage : Malay\r\nDefault : No\r\nForced : No\r\n\r\nText #7\r\nID : 9\r\nFormat : VobSub\r\nMuxing mode : zlib\r\nCodec ID : S_VOBSUB\r\nCodec ID/Info : Picture based subtitle format used on DVDs\r\nDuration : 2 h 47 min\r\nBit rate : 1 346 b/s\r\nCount of elements : 2036\r\nStream size : 1.61 MiB (0%)\r\nLanguage : Turkish\r\nDefault : No\r\nForced : No","torrent":{"xt":"urn:btih:3fcce1cdf4fdd2fb67445903d3626bbd77e6e607","amp;dn":"Sultan+%282016%29+Tiny+720p+DvDRip+x264+AAC+5.1+Msubs+-DDR","amp;tr":["udp%3A%2F%2Ftracker.leechers-paradise.org%3A6969","udp%3A%2F%2Fzer0day.ch%3A1337","udp%3A%2F%2Fopen.demonii.com%3A1337","udp%3A%2F%2Ftracker.coppersurfer.tk%3A6969","udp%3A%2F%2Fexodus.desync.com%3A6969"],"infoHash":"3fcce1cdf4fdd2fb67445903d3626bbd77e6e607","infoHashBuffer":{"type":"Buffer","data":[63,204,225,205,244,253,210,251,103,68,89,3,211,98,107,189,119,230,230,7]},"announce":[],"urlList":[]}}